<svg width="21" height="22" viewBox="0 0 21 22" fill="none" xmlns="http://www.w3.org/2000/svg">
<path d="M12.1289 0.5C11.13 0.5 10.4027 0.597299 9.80923 0.743342C9.22296 0.889387 8.7734 1.0805 8.32812 1.27193C6.95246 1.86106 5.9817 2.27301 5.29745 2.56922L3.65765 3.26702C0.633902 4.55336 0 6.65318 0 8.18705C0 10.6772 1.99163 12.875 5.06875 12.875C5.82947 12.875 6.96282 12.6462 7.92984 12.2336L9.63809 11.502L12.5676 10.2498C13.2845 9.94536 13.7578 9.64199 13.7578 8.79461C13.7578 7.24918 12.2366 6.70837 11.2592 7.12505L6.55297 9.1427C5.89023 9.42406 5.40853 9.49885 5.24922 9.49885C3.68876 9.49885 3.62031 8.20191 3.62031 8.18705C3.62031 7.89002 3.62066 7.3342 5.03297 6.73022L9.77656 4.7174C9.77656 4.7174 11.3149 4.06151 12.4914 4.06151C15.5685 4.06151 17.3797 6.49839 17.3797 8.6544C17.3797 11.2007 15.7972 12.0493 15.312 12.2481L7.68403 15.4986C7.27858 15.6711 7.11921 16.1809 7.3542 16.5671L9.57275 20.1979C9.91687 20.7639 10.3341 21.5 11.3728 21.5C12.0021 21.5 13.2148 21.1581 13.2148 19.7257C13.2148 19.3321 13.1312 18.9983 12.9177 18.646L12.3203 17.6968C12.2916 17.6448 12.3129 17.5804 12.3638 17.5582L16.6251 15.7387C16.8537 15.6488 17.5269 15.3495 18.2836 14.7347C19.5326 13.7141 21 11.8418 21 8.6544C21 4.99834 17.9223 0.499175 12.1289 0.5Z" fill="#84D6C1"/>
</svg>
