<svg width="21" height="24" viewBox="0 0 21 24" fill="none" xmlns="http://www.w3.org/2000/svg">
<path d="M0 0.092041L1.91121 21.5276L10.4869 23.908L19.0869 21.5239L21 0.092041H0ZM17.0293 4.99459L16.3829 12.2393L15.9352 17.2379L15.896 17.6819L10.5037 19.1771L5.11895 17.6819L4.75051 13.5535H7.38927L7.57675 15.6504L10.5075 16.4404L10.5159 16.4385L13.44 15.6494L13.7469 12.2402H7.61033L7.5581 11.6498L7.43777 10.3169L7.37528 9.61172H13.9801L14.2208 6.91979H4.16008L4.10784 6.32843L3.98752 4.99552L3.92502 4.29036H17.0936L17.0302 4.99552L17.0293 4.99459Z" fill="#84D6C1"/>
</svg>
