<svg width="19" height="26" viewBox="0 0 19 26" fill="none" xmlns="http://www.w3.org/2000/svg">
<path d="M9.5 1.75H5.75C3.67894 1.75 2 3.42894 2 5.5C2 7.57106 3.67894 9.25 5.75 9.25M9.5 1.75V9.25M9.5 1.75H13.25C15.3211 1.75 17 3.42894 17 5.5C17 7.57106 15.3211 9.25 13.25 9.25M5.75 9.25H9.5M5.75 9.25C3.67894 9.25 2 10.9289 2 13C2 15.0711 3.67894 16.75 5.75 16.75M9.5 9.25H13.25M9.5 9.25V16.75M13.25 9.25C15.3211 9.25 17 10.9289 17 13C17 15.0711 15.3211 16.75 13.25 16.75C11.1789 16.75 9.5 15.0711 9.5 13C9.5 10.9289 11.1789 9.25 13.25 9.25ZM9.5 16.75H5.75M9.5 16.75V20.5C9.5 22.5711 7.82113 24.25 5.75 24.25C3.67894 24.25 2 22.5711 2 20.5C2 18.4289 3.67894 16.75 5.75 16.75" stroke="#84D6C1" stroke-width="2.33" stroke-linecap="round" stroke-linejoin="round"/>
</svg>
