<svg width="26" height="26" viewBox="0 0 26 26" fill="none" xmlns="http://www.w3.org/2000/svg">
<path d="M17.5879 8.33132C18.243 8.33132 18.7794 7.78931 18.7794 7.12504C18.7794 6.46077 18.243 5.91876 17.5879 5.91876C16.9327 5.91876 16.3964 6.46077 16.3964 7.12504C16.3964 7.79413 16.9271 8.33132 17.5879 8.33132Z" fill="#84D6C1"/>
<path d="M16.4237 9.38745H18.7256V18.228H16.4237V9.38745Z" fill="#84D6C1"/>
<path d="M9.09929 15.2637H12.2138L13.0556 18.225H15.4131L11.9894 6.60895H9.12757V7.75554L6.12524 18.225H8.2575L9.09929 15.2637ZM10.6424 8.67589L11.7934 13.2324H9.49237L10.6424 8.67589Z" fill="#84D6C1"/>
<path d="M0 0V26H26V0H0ZM24.0506 23.9533H1.98709V2.04673H24.0506V23.9533Z" fill="#84D6C1"/>
</svg>
