<svg width="22" height="22" viewBox="0 0 22 22" fill="none" xmlns="http://www.w3.org/2000/svg">
<path fill-rule="evenodd" clip-rule="evenodd" d="M16.5944 19.8537C14.7622 19.8537 13.5777 18.9802 13.0002 17.8378L14.6067 16.9073C15.0299 17.5982 15.579 18.1054 16.5524 18.1054C17.3693 18.1054 17.8911 17.6967 17.8911 17.1329C17.8911 16.2845 16.7592 15.953 15.9602 15.6107C14.5364 15.0048 13.5914 14.2436 13.5914 12.636C13.5914 11.1566 14.7191 10.029 16.4821 10.029C17.7358 10.029 18.6387 10.4657 19.2866 11.607L17.7504 12.594C17.4123 11.9881 17.0459 11.7485 16.4821 11.7485C15.9035 11.7485 15.5371 12.1152 15.5371 12.594C15.5371 13.1862 15.9035 13.4257 16.7498 13.7921C18.5233 14.5523 19.8651 15.1496 19.8651 17.1047C19.8651 18.8813 18.4697 19.8537 16.5944 19.8537ZM12.05 16.8791C12.05 18.9234 10.791 20.004 9.04279 20.004C7.46359 20.004 6.51754 19.4 6.05239 18.35H6.03666H6.02929H6.02509L7.63053 17.2277C7.94028 17.7769 8.2196 18.1665 8.8958 18.1665C9.5447 18.1665 9.95 17.8379 9.95 16.8519V9.95H12.05V16.8791ZM0.5 21.5H21.5V0.5H0.5V21.5Z" fill="#84D6C1"/>
</svg>
