<svg width="41" height="40" viewBox="0 0 41 40" fill="none" xmlns="http://www.w3.org/2000/svg">
<path fill-rule="evenodd" clip-rule="evenodd" d="M40.5 39.9996H32.5V26.0015C32.5 22.1615 30.806 20.0191 27.768 20.0191C24.462 20.0191 22.5 22.2515 22.5 26.0015V39.9996H14.5V13.9996H22.5V16.9234C22.5 16.9234 25.01 12.5191 30.666 12.5191C36.324 12.5191 40.5 15.9718 40.5 23.1158V39.9996ZM5.384 9.84137C2.686 9.84137 0.5 7.63749 0.5 4.91949C0.5 2.20349 2.686 -0.000427246 5.384 -0.000427246C8.08 -0.000427246 10.266 2.20349 10.266 4.91949C10.268 7.63749 8.08 9.84137 5.384 9.84137ZM0.5 39.9996H10.5V13.9996H0.5V39.9996Z" fill="white"/>
</svg>
