<svg width="153" height="144" viewBox="0 0 153 144" fill="none" xmlns="http://www.w3.org/2000/svg">
<g id="logoportfolio copy 1">
<g id="Vector">
<path d="M97.7996 55.3175C97.3852 57.1443 96.9319 59.0593 95.6781 60.4585C94.9273 61.2959 93.9391 61.886 92.9333 62.3912C91.9027 62.9071 90.8331 63.3452 89.7352 63.7056C89.0375 63.9353 88.5877 63.7339 88.0069 63.2816C87.3127 62.741 87.0364 62.0591 87.1781 61.1899C87.55 58.9109 87.6456 56.586 87.4685 54.2858C87.4437 53.9749 87.4189 53.6463 87.5712 53.3742C87.7058 53.134 87.9537 52.9856 88.1946 52.8513C89.5014 52.1128 90.8473 51.438 92.2215 50.8338C93.4823 50.279 95.6533 49.4063 97.0275 49.3215C98.4016 49.2367 99.2304 49.1484 99.9777 50.3038C105.145 58.2785 106.948 68.3484 104.869 77.6127C102.79 86.8771 97.1337 95.7457 89.0481 100.759C87.9006 101.473 85.4639 102.586 84.1181 102.459C81.1679 102.183 80.07 99.3602 76.0998 98.5582C74.4387 98.2225 72.4129 100.456 71.8108 100.957C66.7604 105.158 65.5775 107.611 60.5058 111.197C56.5817 113.97 53.3269 115.264 48.7971 116.878C44.2708 118.493 37.6408 118.811 33.366 116.617C27.8446 113.78 24.9652 107.264 24.9369 101.067C24.9085 94.8694 27.2673 88.9193 29.9589 83.3332C38.0658 66.5287 49.8985 51.1129 65.7546 41.2373C68.9031 39.2763 72.891 37.5167 76.1812 39.2339C76.8683 39.5908 77.5058 40.1279 77.7573 40.8557C77.9521 41.4246 77.8919 42.05 77.8139 42.6471C77.3039 46.4772 76.0927 50.2154 74.2581 53.618C72.4519 56.9676 67.2775 62.3206 68.4817 63.5996C69.6433 64.8363 74.8389 63.059 75.1789 64.7091C75.4942 66.2319 74.1837 68.9632 72.7317 70.5602C68.0248 75.7295 64.1289 77.9237 57.8531 80.3581C57.8531 80.3581 64.1325 76.0545 67.5998 72.9594C70.2702 70.5744 71.2548 69.4472 71.9596 67.8007C72.8662 65.6807 67.0614 67.6382 65.326 66.2001C64.685 65.6701 64.4654 64.112 65.326 61.9602C66.1867 59.8084 67.7804 56.6143 69.1723 54.0526C70.2879 51.9998 71.446 49.8869 71.7223 47.569C71.7754 47.1203 71.7896 46.6503 71.6089 46.2369C71.2867 45.5055 70.3977 45.1487 69.5973 45.2123C68.7969 45.2759 68.0637 45.6716 67.3802 46.0885C61.2212 49.8445 55.1225 55.1691 50.5219 60.72C45.3475 66.9633 41.9971 72.6661 37.2087 80.4676C32.9623 87.3753 30.8125 94.5443 32.2362 102.519C32.4806 103.879 33.9681 106.088 34.8429 107.158C36.6137 109.328 42.716 109.557 45.5069 109.278C56.6914 108.155 61.5046 101.007 69.2042 92.8377C71.1769 90.746 73.8827 88.7921 76.7621 88.8451C78.7419 88.8804 79.9566 89.9616 81.4335 91.2796C82.1525 91.9191 83.4133 92.7459 84.3235 93.0568C86.6929 93.873 89.8662 91.7813 91.336 89.7567C97.5304 81.2344 99.3366 68.9879 96.7512 58.7802" fill="white"/>
<path d="M97.7996 55.3175C97.3852 57.1443 96.9319 59.0593 95.6781 60.4585C94.9273 61.2959 93.9391 61.886 92.9333 62.3912C91.9027 62.9071 90.8331 63.3452 89.7352 63.7056C89.0375 63.9353 88.5877 63.7339 88.0069 63.2816C87.3127 62.741 87.0364 62.0591 87.1781 61.1899C87.55 58.9109 87.6456 56.586 87.4685 54.2858C87.4437 53.9749 87.4189 53.6463 87.5712 53.3742C87.7058 53.134 87.9537 52.9856 88.1946 52.8513C89.5014 52.1128 90.8473 51.438 92.2214 50.8338C93.4823 50.279 95.6533 49.4063 97.0275 49.3215C98.4016 49.2367 99.2304 49.1484 99.9777 50.3038C105.145 58.2785 106.948 68.3484 104.869 77.6127C102.79 86.8771 97.1337 95.7457 89.0481 100.759C87.9006 101.473 85.4639 102.586 84.1181 102.459C81.1679 102.183 80.07 99.3602 76.0998 98.5582C74.4387 98.2225 72.4129 100.456 71.8108 100.957C66.7604 105.158 65.5775 107.611 60.5058 111.197C56.5817 113.97 53.3269 115.264 48.7971 116.878C44.2708 118.493 37.6408 118.811 33.366 116.617C27.8446 113.78 24.9652 107.264 24.9369 101.067C24.9085 94.8694 27.2673 88.9193 29.9589 83.3332C38.0658 66.5287 49.8985 51.1129 65.7546 41.2373C68.9031 39.2763 72.891 37.5167 76.1812 39.2339C76.8683 39.5908 77.5058 40.1279 77.7573 40.8557C77.9521 41.4246 77.8919 42.05 77.8139 42.6471C77.3039 46.4772 76.0927 50.2154 74.2581 53.618C72.4519 56.9676 67.2775 62.3206 68.4817 63.5996C69.6433 64.8363 74.8389 63.059 75.1789 64.7091C75.4942 66.2319 74.1837 68.9632 72.7317 70.5602C68.0248 75.7295 64.1289 77.9237 57.8531 80.3581C57.8531 80.3581 64.1325 76.0545 67.5998 72.9594C70.2702 70.5744 71.2548 69.4472 71.9596 67.8007C72.8662 65.6807 67.0614 67.6382 65.326 66.2001C64.685 65.6701 64.4654 64.112 65.326 61.9602C66.1867 59.8084 67.7804 56.6143 69.1723 54.0526C70.2879 51.9998 71.446 49.8869 71.7223 47.569C71.7754 47.1203 71.7896 46.6503 71.6089 46.2369C71.2867 45.5055 70.3977 45.1487 69.5973 45.2123C68.7969 45.2759 68.0637 45.6716 67.3802 46.0885C61.2212 49.8445 55.1225 55.1691 50.5219 60.72C45.3475 66.9633 41.9971 72.6661 37.2087 80.4676C32.9623 87.3753 30.8125 94.5443 32.2362 102.519C32.4806 103.879 33.9681 106.088 34.8429 107.158C36.6137 109.328 42.716 109.557 45.5069 109.278C56.6914 108.155 61.5046 101.007 69.2042 92.8378C71.1769 90.746 73.8827 88.7921 76.7621 88.8451C78.7419 88.8804 79.9567 89.9616 81.4335 91.2796C82.1525 91.9191 83.4133 92.7459 84.3235 93.0568C86.6929 93.873 89.8662 91.7813 91.336 89.7567C97.5304 81.2344 99.3366 68.9879 96.7512 58.7802" stroke="white" stroke-miterlimit="10"/>
</g>
<g id="Group">
<path id="Vector_2" d="M103.693 84.8384C106.671 78.3229 107.348 70.7793 106.997 67.034C106.686 63.7233 106.122 61.0945 105.056 57.964C104.051 55.0137 103.314 53.0103 101.522 50.0706C101.455 49.9611 101.391 49.848 101.331 49.7385C101.058 49.258 100.803 48.8022 100.268 48.5972C99.7121 48.3852 98.7629 48.1697 98.0156 48.1697C97.9058 48.1697 97.7996 48.1732 97.704 48.1838C97.704 48.1838 97.7039 48.1838 97.7004 48.1838C95.2 48.1838 92.2569 49.3604 90.054 50.6147C90.7446 49.7809 91.4635 48.9576 92.1648 48.1556C92.604 47.6538 93.0396 47.1521 93.4717 46.6504C95.0052 44.859 96.5919 43.0075 98.4406 41.4882C99.2269 40.8451 100.282 40.0819 101.486 39.8947C101.695 39.8629 101.915 39.8452 102.145 39.8452C102.832 39.8452 103.526 39.9865 104.182 40.1349C104.911 40.2975 105.637 40.4565 106.36 40.6155C110.921 41.6154 115.228 42.5588 119.708 44.3997C121.196 45.0109 123.753 46.2158 124.185 47.4418C124.447 48.2227 119.382 57.116 115.313 64.2604C113.054 68.2247 110.72 72.3234 109.034 75.4539C107.348 78.5809 105.623 81.7821 103.693 84.8384Z" fill="white"/>
<path id="Vector_3" d="M102.142 40.0252C102.811 40.0252 103.495 40.1665 104.139 40.3114C104.869 40.4739 105.595 40.6329 106.317 40.7919C110.872 41.7883 115.175 42.7317 119.641 44.5655C122.11 45.5796 123.7 46.6431 124.011 47.484C124.072 48.5228 119.131 57.1971 115.157 64.1754C112.898 68.1397 110.564 72.2419 108.878 75.3724C107.56 77.821 106.215 80.3191 104.762 82.757C107.008 76.7999 107.504 70.5071 107.174 67.0162C106.859 63.6913 106.296 61.0519 105.226 57.9073C104.217 54.9428 103.477 52.9324 101.674 49.9785C101.607 49.869 101.547 49.7595 101.486 49.6535C101.21 49.1659 100.927 48.6606 100.332 48.4345C99.7794 48.2225 98.8196 47.9964 98.0192 47.9964C97.9094 47.9964 97.8031 47.9999 97.7075 48.0105C95.4621 48.014 92.8908 48.9362 90.7906 50.0209C91.29 49.4309 91.8 48.8514 92.2958 48.279C92.735 47.7773 93.1741 47.2756 93.6062 46.7703C95.1362 44.986 96.7158 43.1416 98.5539 41.6329C99.3225 41.0039 100.353 40.2549 101.515 40.0782C101.71 40.0429 101.922 40.0252 102.142 40.0252ZM102.142 39.6719C101.911 39.6719 101.685 39.686 101.458 39.7213C100.279 39.9015 99.2481 40.5976 98.3273 41.3537C96.4714 42.8766 94.8989 44.7104 93.3371 46.5371C91.9842 48.1165 90.5746 49.6641 89.2783 51.2894C91.5414 49.8513 94.9485 48.3603 97.7217 48.3603C97.8137 48.3497 97.9129 48.3462 98.0156 48.3462C98.7098 48.3462 99.6271 48.5405 100.201 48.7631C100.789 48.9892 101.012 49.5757 101.37 50.1623C103.13 53.049 103.863 55.0064 104.886 58.0239C105.91 61.0272 106.494 63.6418 106.817 67.055C107.259 71.7649 106.137 81.0999 101.816 87.9581C104.61 84.0361 106.902 79.7855 109.182 75.5456C114.236 66.1611 124.791 48.6535 124.344 47.3886C123.898 46.1237 121.387 44.9082 119.769 44.244C114.555 42.1028 109.512 41.1594 104.21 39.9722C103.534 39.8132 102.836 39.6719 102.142 39.6719Z" fill="white"/>
</g>
</g>
</svg>
