<svg width="41" height="40" viewBox="0 0 41 40" fill="none" xmlns="http://www.w3.org/2000/svg">
<path d="M15.594 3.29L17.2165 6.19732C18.6807 8.82102 18.093 12.2629 15.7867 14.5691C15.7867 14.5691 12.9897 17.3666 18.0612 22.4383C23.1312 27.5083 25.9305 24.7128 25.9305 24.7128C28.2367 22.4066 31.6785 21.8188 34.3022 23.2831L37.2095 24.9056C41.1715 27.1166 41.6392 32.6726 38.157 36.155C36.0645 38.2475 33.501 39.8758 30.6672 39.983C25.897 40.164 17.7957 38.9568 9.66925 30.8303C1.54283 22.7038 0.33553 14.6026 0.51638 9.83229C0.623805 6.99857 2.252 4.43515 4.34453 2.34265C7.8269 -1.13973 13.3829 -0.671826 15.594 3.29Z" fill="white"/>
</svg>
