<svg width="22" height="22" viewBox="0 0 22 22" fill="none" xmlns="http://www.w3.org/2000/svg">
<path fill-rule="evenodd" clip-rule="evenodd" d="M13.8812 19.8809C13.3751 19.8809 12.9656 19.4694 12.9656 18.9606C12.9656 18.4519 13.3751 18.0414 13.8812 18.0414C14.3873 18.0414 14.7968 18.4519 14.7968 18.9606C14.7968 19.4694 14.3873 19.8809 13.8812 19.8809ZM11.0756 21.5C16.4075 21.5 16.0747 19.176 16.0747 19.176L16.0683 16.7683H10.9811V16.0454H18.0886C18.0886 16.0454 21.5 16.4349 21.5 11.0277C21.5 5.62042 18.5233 5.81101 18.5233 5.81101H16.7456V8.32117C16.7456 8.32117 16.8412 11.3133 13.8161 11.3133H8.76981C8.76981 11.3133 5.93479 11.2683 5.93479 14.0685V18.6976C5.93479 18.6976 5.50429 21.5 11.0756 21.5ZM8.11984 2.11909C8.62594 2.11909 9.03439 2.53063 9.03439 3.03938C9.03439 3.54813 8.62594 3.95864 8.11984 3.95864C7.61374 3.95864 7.20426 3.54813 7.20426 3.03938C7.20426 2.53063 7.61374 2.11909 8.11984 2.11909ZM10.9244 0.5C5.59356 0.5 5.9264 2.82405 5.9264 2.82405L5.93271 5.23166H11.02V5.95457H3.91144C3.91144 5.95457 0.5 5.56506 0.5 10.9723C0.5 16.3796 3.4778 16.189 3.4778 16.189H5.25442V13.6788C5.25442 13.6788 5.15885 10.6867 8.18495 10.6867H13.2302C13.2302 10.6867 16.0652 10.7317 16.0652 7.93152V3.30239C16.0652 3.30239 16.4957 0.5 10.9244 0.5Z" fill="#84D6C1"/>
</svg>
