<svg width="21" height="22" viewBox="0 0 21 22" fill="none" xmlns="http://www.w3.org/2000/svg">
<path fill-rule="evenodd" clip-rule="evenodd" d="M20.2566 2.7211L15.9327 0.629907C15.7721 0.552192 15.5973 0.508685 15.4192 0.502112L15.3751 0.5H15.3373C14.9975 0.505227 14.673 0.643074 14.4322 0.884441L6.16245 8.47398L2.55885 5.72481C2.39641 5.59997 2.19552 5.53654 1.99129 5.54562C1.78707 5.55469 1.59251 5.63569 1.44165 5.77445L0.2856 6.83166C0.19597 6.91353 0.124282 7.01329 0.0751094 7.12458C0.0259364 7.23587 0.000356345 7.35624 0 7.47803V7.48225C0 7.71989 0.0945001 7.95858 0.2856 8.13284L3.4104 11.0003L0.2856 13.8678C0.195761 13.9504 0.12403 14.0509 0.0749872 14.163C0.025944 14.2751 0.000665235 14.3962 0.000764036 14.5186C0.000862838 14.641 0.026337 14.7621 0.075561 14.8741C0.124785 14.9861 0.196677 15.0865 0.28665 15.169L1.4427 16.2262C1.59344 16.3656 1.78825 16.447 1.99283 16.4561C2.1974 16.4652 2.39859 16.4013 2.56095 16.2758L6.16455 13.5266L14.4343 21.1162C14.6496 21.3327 14.9334 21.4664 15.2365 21.4943L15.2492 21.4953C15.2681 21.4974 15.288 21.4974 15.3069 21.4985C15.3331 21.4996 15.3594 21.5006 15.3856 21.4996L15.414 21.4985C15.5914 21.4922 15.7678 21.451 15.9348 21.3697L20.2587 19.2785C20.7113 19.0598 21 18.5972 21 18.0903V3.91033C21 3.40232 20.7113 2.94078 20.2566 2.7211ZM15.7437 15.7847L9.4731 10.9993L15.7437 6.21381V15.7847Z" fill="#84D6C1"/>
</svg>
